<svg width="28" height="28" viewBox="0 0 28 28" fill="none" xmlns="http://www.w3.org/2000/svg">
<path fill-rule="evenodd" clip-rule="evenodd" d="M7.97153 5.29426C6.18918 7.10858 4.71808 10.327 3.92822 12.8357C3.67946 13.6258 2.83729 14.0647 2.04719 13.8159C1.25709 13.5671 0.818248 12.725 1.06701 11.9349C1.90477 9.27401 3.55121 5.51347 5.83168 3.19211C6.98075 2.02243 8.4618 1.04603 10.2294 0.99914C12.0457 0.950958 13.7422 1.89073 15.2719 3.64525C16.2018 4.71174 16.8328 5.76728 17.0503 6.83982C17.2826 7.98537 17.0132 9.00386 16.4268 9.84824C15.8808 10.6346 15.0912 11.2284 14.319 11.7C13.5361 12.1781 12.6422 12.6055 11.7969 13.002C11.732 13.0324 11.6673 13.0627 11.603 13.0929C9.88991 13.8957 8.42357 14.5829 7.48776 15.4696C7.03821 15.8956 6.79126 16.2996 6.68925 16.707C6.58943 17.1056 6.59026 17.6583 6.90034 18.4558C7.52161 20.0535 9.07688 21.5817 11.2528 22.7868C13.4028 23.9774 15.9791 24.7491 18.3499 24.9454C20.7712 25.1459 22.7047 24.7286 23.8125 23.8736C24.3354 23.4701 24.6947 22.9577 24.8709 22.292C25.0521 21.6071 25.063 20.6659 24.7145 19.3963C24.0627 17.0217 22.6222 15.8892 20.9625 15.4219C19.2071 14.9277 17.1179 15.1674 15.3962 15.8136C14.5445 16.1333 13.8495 16.5284 13.3741 16.9163C13.1378 17.1091 12.9787 17.2815 12.8805 17.4192C12.8393 17.477 12.8131 17.5227 12.7964 17.5562C12.8212 17.5786 12.858 17.6084 12.9114 17.6461C13.2598 17.8919 14.0288 18.2132 15.4867 18.4278C16.3062 18.5484 16.8727 19.3105 16.7521 20.13C16.6315 20.9495 15.8693 21.5161 15.0498 21.3955C13.409 21.1539 12.0945 20.7411 11.1818 20.0969C10.1906 19.3973 9.59647 18.3406 9.81513 17.1027C10.002 16.0451 10.7345 15.1986 11.4777 14.5922C12.259 13.9546 13.2571 13.4125 14.3421 13.0052C16.4939 12.1975 19.2524 11.8242 21.7754 12.5345C24.394 13.2717 26.6627 15.1612 27.6072 18.6023C28.0569 20.2407 28.1206 21.7369 27.7707 23.0593C27.4157 24.4008 26.66 25.4652 25.6452 26.2484C23.6777 27.7668 20.8457 28.162 18.1024 27.9348C15.3086 27.7035 12.3212 26.8074 9.79958 25.4109C7.30394 24.0288 5.07965 22.0504 4.1046 19.5429C3.61651 18.2877 3.49997 17.0943 3.77943 15.9783C4.05668 14.8712 4.68567 13.9923 5.42456 13.2922C6.72881 12.0564 8.61737 11.1754 10.1672 10.4525C10.2881 10.3961 10.4069 10.3407 10.5232 10.2862C11.3799 9.88436 12.1322 9.52068 12.7556 9.13994C13.3897 8.75271 13.7666 8.42001 13.963 8.13725C14.119 7.91255 14.168 7.71943 14.1105 7.43597C14.0382 7.07951 13.7713 6.48867 13.0109 5.61656C11.8363 4.26932 10.9286 3.98132 10.3089 3.99776C9.64055 4.01549 8.85387 4.3961 7.97153 5.29426ZM12.7496 17.5046C12.7505 17.5047 12.7545 17.5094 12.7589 17.5185C12.751 17.5091 12.7488 17.5045 12.7496 17.5046Z" fill="#111111"/>
</svg>
